<svg width="19" height="18" viewBox="0 0 19 18" fill="none" xmlns="http://www.w3.org/2000/svg">
<path fill-rule="evenodd" clip-rule="evenodd" d="M18.1622 9C18.1622 13.9706 14.0964 18 9.08109 18C4.06574 18 0 13.9706 0 9C0 4.02944 4.06574 0 9.08109 0C14.0964 0 18.1622 4.02944 18.1622 9ZM10.8327 9.136L11.5592 8.4C12.0193 7.936 12.3099 7.304 12.3099 6.6C12.3099 5.75131 11.9697 4.93737 11.3642 4.33726C10.7587 3.73714 9.93744 3.4 9.0811 3.4C8.22476 3.4 7.4035 3.73714 6.79798 4.33726C6.19245 4.93737 5.85227 5.75131 5.85227 6.6H7.46669C7.46669 6.17565 7.63678 5.76869 7.93954 5.46863C8.2423 5.16857 8.65293 5 9.0811 5C9.96903 5 10.6955 5.712 10.6955 6.6C10.6955 7.04 10.5179 7.44 10.2193 7.728L9.21833 8.736C8.63714 9.312 8.27389 10.112 8.27389 11V11.4H9.88831C9.88831 10.2 10.2516 9.712 10.8327 9.136ZM8.27389 13V14.6H9.88831V13H8.27389Z" fill="#3271D2"/>
</svg>
